# xmcd
#
# Track frame offsets:
#	150
#	26123
#	54690
#	84570
#	116065
#	159113
#	171138
#	201973
#	229498
#	256870
#	282527
#	324507
#
# Disc length: 4556 seconds
# Revision: 0
# Processed by: cddbd v1.5.2PL0 Copyright (c) Steve Scherf et al.
# Submitted via: dBpowerAMP V12.0
#
DISCID=a911ca0c
DTITLE=Prince Ello - Prince Ello and New York Konektion
DYEAR=2011
DGENRE=World
TTITLE0=Fanm Moral
TTITLE1=Ki Mod Renmen sa ye
TTITLE2=Vire'l
TTITLE3=Jan ou ye ya
TTITLE4=Refrains de la France
TTITLE5=Ban Mwen Lanmou
TTITLE6=Voye Oye
TTITLE7=Jolie Creole
TTITLE8=Mangeur de Chatte
TTITLE9=Haiti, Nou Gen Lespwa
TTITLE10=Sovenirs
TTITLE11=Kenbe pa Lage
EXTD=
EXTT0=
EXTT1=
EXTT2=
EXTT3=
EXTT4=
EXTT5=
EXTT6=
EXTT7=
EXTT8=
EXTT9=
EXTT10=
EXTT11=
PLAYORDER=
